<svg xmlns="http://www.w3.org/2000/svg" version="1.1" xmlns:xlink="http://www.w3.org/1999/xlink" xmlns:svgjs="http://svgjs.dev/svgjs" width="1000" height="623" viewBox="0 0 1000 623"><g transform="matrix(1,0,0,1,-0.6060590496580858,0.2522267206477409)"><svg viewBox="0 0 396 247" data-background-color="#ffffff" preserveAspectRatio="xMidYMid meet" height="623" width="1000" xmlns="http://www.w3.org/2000/svg" xmlns:xlink="http://www.w3.org/1999/xlink"><g id="tight-bounds" transform="matrix(1,0,0,1,0.23999938366461038,-0.09999999999999432)"><svg viewBox="0 0 395.52 247.2" height="247.2" width="395.52"><g><svg></svg></g><g><svg viewBox="0 0 395.52 247.2" height="247.2" width="395.52"><g><path xmlns="http://www.w3.org/2000/svg" d="M55.039 247.2l43.804-75.872 2.874 0-42.289 73.247h276.664l-42.289-73.247 2.873 0 43.805 75.872zM197.76 0l43.804 75.872-2.873 0-40.931-70.895-40.931 70.895h-2.873z" fill="#ee3e38" fill-rule="nonzero" stroke="none" stroke-width="1" stroke-linecap="butt" stroke-linejoin="miter" stroke-miterlimit="10" stroke-dasharray="" stroke-dashoffset="0" font-family="none" font-weight="none" font-size="none" text-anchor="none" style="mix-blend-mode: normal" data-fill-palette-color="tertiary"></path></g><g transform="matrix(1,0,0,1,0,89.50829268292682)"><svg viewBox="0 0 395.52 68.18341463414635" height="68.18341463414635" width="395.52"><g><svg viewBox="0 0 395.52 68.18341463414635" height="68.18341463414635" width="395.52"><g><svg viewBox="0 0 395.52 68.18341463414635" height="68.18341463414635" width="395.52"><g><svg viewBox="0 0 395.52 68.18341463414635" height="68.18341463414635" width="395.52"><g><svg viewBox="0 0 395.52 68.18341463414635" height="68.18341463414635" width="395.52" id="textblock"><g><svg viewBox="0 0 395.52 68.18341463414635" height="68.18341463414635" width="395.52"><g transform="matrix(1,0,0,1,0,0)"><svg width="395.52" viewBox="2.299999952316284 -35.70000076293945 211.13999938964844 36.400001525878906" height="68.18341463414635" data-palette-color="#ee3e38"><path d="M2.3 0L2.3-35 10.3-35 15-1.8 15.6-1.8 20.3-35 28.3-35 28.3 0 24.4 0 24.4-33.2 23.8-33.2 19.1 0 11.5 0 6.8-33.2 6.2-33.2 6.2 0 2.3 0ZM33.9-35L38.1-35 38.1-11.8Q38.1-7.55 40.07-5.38 42.05-3.2 45.9-3.2L45.9-3.2Q49.75-3.2 51.72-5.38 53.7-7.55 53.7-11.8L53.7-11.8 53.7-35 57.9-35 57.9-11.8Q57.9-5.7 54.7-2.5 51.5 0.7 45.9 0.7L45.9 0.7Q40.3 0.7 37.1-2.5 33.9-5.7 33.9-11.8L33.9-11.8 33.9-35ZM84.75-23.1L84.75-24.9Q84.75-26.6 84.07-27.9 83.4-29.2 82.25-30.05 81.1-30.9 79.6-31.35 78.1-31.8 76.45-31.8L76.45-31.8Q75-31.8 73.7-31.43 72.4-31.05 71.37-30.35 70.35-29.65 69.75-28.63 69.15-27.6 69.15-26.25L69.15-26.25 69.15-25.95Q69.15-24.5 69.75-23.48 70.35-22.45 71.52-21.73 72.7-21 74.45-20.53 76.2-20.05 78.55-19.7L78.55-19.7Q84.05-18.85 86.65-16.48 89.25-14.1 89.25-10.1L89.25-10.1 89.25-9.5Q89.25-7.25 88.47-5.38 87.7-3.5 86.17-2.15 84.65-0.8 82.4-0.05 80.15 0.7 77.2 0.7L77.2 0.7Q73.85 0.7 71.27-0.28 68.7-1.25 66.97-2.98 65.25-4.7 64.35-7.03 63.45-9.35 63.45-12.1L63.45-12.1 63.45-13.6 67.65-13.6 67.65-12.4Q67.65-7.8 70.17-5.5 72.7-3.2 77.2-3.2L77.2-3.2Q81.1-3.2 83.07-4.93 85.05-6.65 85.05-9.5L85.05-9.5 85.05-9.8Q85.05-12.55 83.02-14 81-15.45 76.45-16.1L76.45-16.1Q73.8-16.45 71.67-17.18 69.55-17.9 68.05-19.07 66.55-20.25 65.75-21.9 64.95-23.55 64.95-25.8L64.95-25.8 64.95-26.4Q64.95-28.45 65.8-30.15 66.65-31.85 68.17-33.1 69.7-34.35 71.82-35.02 73.95-35.7 76.5-35.7L76.5-35.7Q79.45-35.7 81.77-34.85 84.1-34 85.7-32.58 87.3-31.15 88.12-29.23 88.95-27.3 88.95-25.2L88.95-25.2 88.95-23.1 84.75-23.1ZM94.79-31.1L94.79-35 119.39-35 119.39-31.1 109.19-31.1 109.19 0 104.99 0 104.99-31.1 94.79-31.1ZM147.74 0L145.19-8.7 130.19-8.7 127.64 0 123.14 0 133.74-35 141.64-35 152.24 0 147.74 0ZM137.99-33.2L137.39-33.2 131.34-12.6 144.04-12.6 137.99-33.2ZM157.74 0L157.74-35 179.24-35 179.24-31.1 161.94-31.1 161.94-19.5 178.94-19.5 178.94-15.6 161.94-15.6 161.94 0 157.74 0ZM208.94 0L206.39-8.7 191.39-8.7 188.84 0 184.34 0 194.94-35 202.84-35 213.44 0 208.94 0ZM199.19-33.2L198.59-33.2 192.53-12.6 205.24-12.6 199.19-33.2Z" opacity="1" transform="matrix(1,0,0,1,0,0)" fill="#ee3e38" class="undefined-text-0" data-fill-palette-color="primary" id="text-0"></path></svg></g></svg></g></svg></g></svg></g></svg></g></svg></g></svg></g></svg></g><defs></defs></svg><rect width="395.52" height="247.2" fill="none" stroke="none" visibility="hidden"></rect></g></svg></g></svg>